<!-- Generator: Adobe Illustrator 24.3.0, SVG Export Plug-In . SVG Version: 6.00 Build 0) -->
<svg version="1.1" id="brand-logo" xmlns="http://www.w3.org/2000/svg" x="0px" y="0px" viewBox="0 0 24.8 28" style="enable-background:new 0 0 24.8 28;" xmlns:xlink="http://www.w3.org/1999/xlink" xml:space="preserve">
    <g>
        <g>
            <g id="XMLID_28_">
                <g id="XMLID_29_">
                    <path d="M14,0c2.6,0,4.6,2.1,4.6,4.7S16.5,9.3,14,9.3c-2.6,0-4.7,2.1-4.7,4.7s2,4.8,4.7,4.8s4.6,2.1,4.6,4.6
                        c0,2.6-2.1,4.6-4.6,4.6c-2.6,0-4.7-2.1-4.7-4.6c0-2.6-2.1-4.6-4.6-4.6l0,0c-2.6,0-4.6-2.1-4.6-4.7s2.1-4.6,4.7-4.6l0,0
                        c2.6,0,4.6-2.1,4.6-4.7C9.3,2.1,11.4,0,14,0z"></path>
                    <path d="M21,10.2c2.1,0,3.8,1.7,3.8,3.7c0,2.1-1.7,3.8-3.8,3.8s-3.7-1.7-3.7-3.8C17.2,11.9,18.9,10.2,21,10.2z"></path>
                </g>
            </g>
        </g>
    </g>
</svg>